REM DIRINDEX 1\2\5,1\2\6,1\2\7,1\2\8,1\3\9,1\3\10,1\3\11,1\4\12,1\4\13,1\4\14,1\4\15,1\4\16
REM DIRNAME folder01,folder02,folder03,folder04,folder05,folder06,folder07,folder08,folder09,folder10,folder11,folder12,folder13,folder14,folder15,folder16
TITLE ""
FILE "1200_2_sec02_0540_0560.mp3" MP3
  TRACK 01 AUDIO
    TITLE "0:"
    INDEX 01 00:00:00
  TRACK 02 AUDIO
    TITLE "10:cjc034_01104"
    INDEX 01 00:00:15
  TRACK 03 AUDIO
    TITLE "0:"
    INDEX 01 00:01:24
  TRACK 04 AUDIO
    TITLE "9:cjc034_01105"
    INDEX 01 00:01:30
  TRACK 05 AUDIO
    TITLE "0:"
    INDEX 01 00:02:43
  TRACK 06 AUDIO
    TITLE "10:cjc034_01106"
    INDEX 01 00:03:25
  TRACK 07 AUDIO
    TITLE "0:"
    INDEX 01 00:04:27
  TRACK 08 AUDIO
    TITLE "9:cjc034_01107"
    INDEX 01 00:04:36
  TRACK 09 AUDIO
    TITLE "0:"
    INDEX 01 00:05:42
  TRACK 10 AUDIO
    TITLE "10:cjc034_01108"
    INDEX 01 00:06:22
  TRACK 11 AUDIO
    TITLE "0:"
    INDEX 01 00:07:45
  TRACK 12 AUDIO
    TITLE "9:cjc034_01109"
    INDEX 01 00:07:47
  TRACK 13 AUDIO
    TITLE "0:"
    INDEX 01 00:08:56
  TRACK 14 AUDIO
    TITLE "10:cjc034_01110"
    INDEX 01 00:09:34
  TRACK 15 AUDIO
    TITLE "0:"
    INDEX 01 00:10:61
  TRACK 16 AUDIO
    TITLE "9:cjc034_01111"
    INDEX 01 00:10:70
  TRACK 17 AUDIO
    TITLE "0:"
    INDEX 01 00:12:09
  TRACK 18 AUDIO
    TITLE "10:cjc034_01112"
    INDEX 01 00:12:69
  TRACK 19 AUDIO
    TITLE "0:"
    INDEX 01 00:15:17
  TRACK 20 AUDIO
    TITLE "9:cjc034_01113"
    INDEX 01 00:15:19
  TRACK 21 AUDIO
    TITLE "0:"
    INDEX 01 00:16:32
  TRACK 22 AUDIO
    TITLE "10:cjc034_01114"
    INDEX 01 00:17:18
  TRACK 23 AUDIO
    TITLE "0:"
    INDEX 01 00:19:40
  TRACK 24 AUDIO
    TITLE "9:cjc034_01115"
    INDEX 01 00:19:46
  TRACK 25 AUDIO
    TITLE "0:"
    INDEX 01 00:20:59
  TRACK 26 AUDIO
    TITLE "10:cjc034_01116"
    INDEX 01 00:21:41
  TRACK 27 AUDIO
    TITLE "0:"
    INDEX 01 00:22:68
  TRACK 28 AUDIO
    TITLE "9:cjc034_01117"
    INDEX 01 00:22:74
  TRACK 29 AUDIO
    TITLE "0:"
    INDEX 01 00:24:14
  TRACK 30 AUDIO
    TITLE "10:cjc034_01118"
    INDEX 01 00:24:69
  TRACK 31 AUDIO
    TITLE "0:"
    INDEX 01 00:27:26
  TRACK 32 AUDIO
    TITLE "9:cjc034_01119"
    INDEX 01 00:27:30
  TRACK 33 AUDIO
    TITLE "0:"
    INDEX 01 00:28:66
  TRACK 34 AUDIO
    TITLE "10:cjc034_01120"
    INDEX 01 00:29:48
  TRACK 35 AUDIO
    TITLE "0:"
    INDEX 01 00:32:19
  TRACK 36 AUDIO
    TITLE "9:cjc034_01121"
    INDEX 01 00:32:21
  TRACK 37 AUDIO
    TITLE "0:"
    INDEX 01 00:33:36
  TRACK 38 AUDIO
    TITLE "10:cjc034_01122"
    INDEX 01 00:34:20
  TRACK 39 AUDIO
    TITLE "0:"
    INDEX 01 00:36:56
  TRACK 40 AUDIO
    TITLE "9:cjc034_01123"
    INDEX 01 00:36:60
  TRACK 41 AUDIO
    TITLE "0:"
    INDEX 01 00:37:65
  TRACK 42 AUDIO
    TITLE "11:cjc034_01124"
    INDEX 01 00:39:39
  TRACK 43 AUDIO
    TITLE "0:"
    INDEX 01 00:40:52
  TRACK 44 AUDIO
    TITLE "10:cjc034_01125"
    INDEX 01 00:41:57
  TRACK 45 AUDIO
    TITLE "0:"
    INDEX 01 00:43:29
  TRACK 46 AUDIO
    TITLE "9:cjc034_01126"
    INDEX 01 00:43:33
  TRACK 47 AUDIO
    TITLE "0:"
    INDEX 01 00:44:42
  TRACK 48 AUDIO
    TITLE "10:cjc034_01127"
    INDEX 01 00:45:20
  TRACK 49 AUDIO
    TITLE "0:"
    INDEX 01 00:48:38
  TRACK 50 AUDIO
    TITLE "9:cjc034_01128"
    INDEX 01 00:48:40
  TRACK 51 AUDIO
    TITLE "0:"
    INDEX 01 00:49:53
  TRACK 52 AUDIO
    TITLE "10:cjc034_01129"
    INDEX 01 00:50:31
  TRACK 53 AUDIO
    TITLE "0:"
    INDEX 01 00:53:55
  TRACK 54 AUDIO
    TITLE "9:cjc034_01130"
    INDEX 01 00:53:60
  TRACK 55 AUDIO
    TITLE "0:"
    INDEX 01 00:55:03
  TRACK 56 AUDIO
    TITLE "10:cjc034_01131"
    INDEX 01 00:55:59
  TRACK 57 AUDIO
    TITLE "0:"
    INDEX 01 00:57:50
  TRACK 58 AUDIO
    TITLE "9:cjc034_01132"
    INDEX 01 00:57:60
  TRACK 59 AUDIO
    TITLE "0:"
    INDEX 01 00:58:66
  TRACK 60 AUDIO
    TITLE "10:cjc034_01133"
    INDEX 01 00:59:49
  TRACK 61 AUDIO
    TITLE "0:"
    INDEX 01 01:01:27
  TRACK 62 AUDIO
    TITLE "9:cjc034_01134"
    INDEX 01 01:01:29
  TRACK 63 AUDIO
    TITLE "0:"
    INDEX 01 01:02:40
  TRACK 64 AUDIO
    TITLE "10:cjc034_01135"
    INDEX 01 01:03:20
  TRACK 65 AUDIO
    TITLE "0:"
    INDEX 01 01:05:09
  TRACK 66 AUDIO
    TITLE "9:cjc034_01136"
    INDEX 01 01:05:11
  TRACK 67 AUDIO
    TITLE "0:"
    INDEX 01 01:06:28
  TRACK 68 AUDIO
    TITLE "10:cjc034_01137"
    INDEX 01 01:07:08
  TRACK 69 AUDIO
    TITLE "0:"
    INDEX 01 01:09:10
  TRACK 70 AUDIO
    TITLE "9:cjc034_01138"
    INDEX 01 01:09:14
  TRACK 71 AUDIO
    TITLE "0:"
    INDEX 01 01:10:30
  TRACK 72 AUDIO
    TITLE "10:cjc034_01139"
    INDEX 01 01:11:09
  TRACK 73 AUDIO
    TITLE "0:"
    INDEX 01 01:12:68
  TRACK 74 AUDIO
    TITLE "9:cjc034_01140"
    INDEX 01 01:12:73
  TRACK 75 AUDIO
    TITLE "0:"
    INDEX 01 01:14:12
  TRACK 76 AUDIO
    TITLE "10:cjc034_01141"
    INDEX 01 01:14:70
  TRACK 77 AUDIO
    TITLE "0:"
    INDEX 01 01:16:60
  TRACK 78 AUDIO
    TITLE "9:cjc034_01142"
    INDEX 01 01:16:63
  TRACK 79 AUDIO
    TITLE "0:"
    INDEX 01 01:17:73
  TRACK 80 AUDIO
    TITLE "10:cjc034_01143"
    INDEX 01 01:18:60
  TRACK 81 AUDIO
    TITLE "0:"
    INDEX 01 01:21:65
  TRACK 82 AUDIO
    TITLE "9:cjc034_01144"
    INDEX 01 01:21:70
  TRACK 83 AUDIO
    TITLE "0:"
    INDEX 01 01:22:62
  TRACK 84 AUDIO
    TITLE "10:cjc034_01145"
    INDEX 01 01:23:42
  TRACK 85 AUDIO
    TITLE "0:"
    INDEX 01 01:25:35
  TRACK 86 AUDIO
    TITLE "9:cjc034_01146"
    INDEX 01 01:25:39
  TRACK 87 AUDIO
    TITLE "0:"
    INDEX 01 01:26:50
